<?xml version="1.0" encoding="UTF-8"?>
<svg id="Layer_1" xmlns="http://www.w3.org/2000/svg" version="1.1" viewBox="0 0 792 612">
  <!-- Generator: Adobe Illustrator 29.8.1, SVG Export Plug-In . SVG Version: 2.1.1 Build 2)  -->
  <defs>
    <style>
      .st0 {
        fill: #fff;
      }
    </style>
  </defs>
  <path d="M123.63,208.41c16.14-3.78,33.71-1.4,47.57,9.23,3.49-13.96,3.94-29.97-2.22-43.07-2.15-4.57-10.31-12.08-1.85-13.36,8.47-1.28,30.71-.89,39.59,0,1.54.15,3.8.23,4.92,1.56,2.19,2.58,2.11,29.82,1.75,34.87-1.68,24.13-18.88,65.1-8.1,87.19,2.13,4.35,10.66,10.68.53,11.81-8.62.96-32.21,1.25-40.5-.01-6.43-.98-6.28-13.24-5.78-19.01,1.11-12.94,14.42-36.89-1-46.02-23.93-14.17-56.35,15.49-41.23,48.09,1.73,3.72,11.21,13.27,7.25,16.44l-46.75-.05c-3.43-2.32-3.01-27.61-2.67-32.8,1.83-27.3,19.2-66.51,7.49-91.62-1.59-3.42-7.93-9.24.08-10.44,6.72-1.01,30.21-1.03,36.9,0,1.14.17,1.7.18,2.71,1,5.48,4.43,2.49,38.02,1.29,46.2Z"/>
  <path d="M326.53,252.49c3.08-.14,6.46-.65,7.16,3.63.65,3.99.57,22.36.07,26.67-.18,1.51-.17,2.55-1.32,3.62-1.46,1.36-13.89,4.86-16.67,5.57-29.58,7.48-93.62,11.21-105-30.82-16.96-62.6,92.34-73.32,117.58-38.92,8,10.91,7.22,20.76-1.82,30.26ZM229.57,246.34c10.8-4.45,21.22-6.09,32.75-5.11,6.83.58,25.96,6.79,30.93,2.49,6.32-5.46-4.13-13.35-8.04-15.3-17.38-8.67-52.25-9.7-55.64,17.91ZM315.75,258.66c-22,7.88-44.22-3.59-65.94-4.15-2.5-.06-14.23.43-14.86,3.66.69,3.28,3.88,4.87,6.3,6.1,17.92,9.16,53.87,4.38,72.03-3.84.95-.43,2.68-.29,2.47-1.77Z"/>
  <path d="M409.57,296.58c-1.9-.36-3.51-3.28-3.02-5.44.51-2.31,10.62-8.22,11.49-16.71,2.55-24.89-49.84-22.97-40.25,4.11,2.28,6.44,13.6,11.38,7.99,17.53-6.49,0-45.58,2.2-48.27-.76-1.33-1.47.34-13.68.81-16.52,2.88-17.39,10.21-22.91,24.13-28.84-11.16-4.92-19.46-8.88-22.89-23.08-1-4.12-3.03-16.07-2.86-19.88.15-3.11,2.35-3.4,4.62-3.68,13.97-1.73,31.08.86,45.35.51,5.63,6.07-2.95,8.09-5.88,11.74-7.67,9.56-3.82,22.82,6.94,26,15.3,4.52,40.67-3.71,25.85-25.42-2.01-2.95-8.58-7.23-6.31-11.09.42-.59,1.85-1.75,2.3-1.75h47.58c.69,0,1.71,2.36,1.32,3.45-2.79,9.35-1.51,20.15-6.4,28.67-4.48,7.81-12.64,10.84-19.61,14.52,11.69,5.49,20.03,9.69,23.08,24.91.56,2.81,3.03,17.54,2.92,19.27-.06.94-.74,2.46-1.3,2.46h-47.58Z"/>
  <path d="M636.26,243.26l68.9,8.46c2.12,3.54.91,6.23-2.64,7.24l-66.26,21.22c.32,6.39,7.01,27.04,4.95,31.77-2.05,4.7-6.49.34-8.08.36-.98.01-2.11,1.54-3.57,1.59-2.71.09-5.6-3.41-8.55-2.98.13,5.87,1.13,15.16-6.27,13.9l-48.92-23.16-133.13,35.65c-4.85,1.59-9.88-1.46-5.84-6.96l80.12-55.82-40.39-21.51c-1.84-2.16-1.09-6.65,1.53-7.5,1.61-.52,8.33-1.11,10.56-1.27,29.15-2.03,58.63-.52,87.82-3.26l81.01-38.81c3.35,0,4.68,3.08,3.85,6.49l-15.09,34.58ZM686.54,255.58l-56.16-6.1c-.5-.68-1.54-1.42-1.8-2.14-1.34-3.81,15.06-34.33,13.95-35.84l-76.07,36.66-86.42,3.33,34.44,18.58c2.1,1.24,3.11,3.45,1.93,5.99l-71.38,50.24,120.76-31.86,48.91,21.61c-2.03-23.56,8.86-8.18,19.76-10.25.5-5.96-6.86-26.61-3.62-30.27l55.68-19.95Z"/>
  <path d="M163.58,310.93l30.09,91.23,31.86-91.23h38.16s-53.86,136.86-53.86,136.86c-1.63.89-26.82,1.02-30.13.57-.99-.14-1.96-.02-2.65-1.07l-52.51-136.35h39.05ZM159.09,318.11h-24.69s46.23,122,46.23,122c1.54,2.13,21.8.88,25.6.51l47.57-122.51h-25.14s-35,104.56-35,104.56l-34.57-104.56Z"/>
  <path d="M603.94,386.79h-36.81c.47-17.99-23.49-19.93-31.44-9.75-6.11,7.82-6.25,30.66-.88,38.96,7.81,12.07,33.73,9.71,31.42-9.73h35.91c-3.23,43.44-51.27,53.15-81.03,39.73-31.36-14.14-35.16-66.52-10.11-89.99,18.12-16.98,56.4-17.6,75.81-3.48,11.66,8.49,12.91,20.43,17.13,34.26ZM594.97,379.61c-3.48-34-53.72-35.15-73.63-23.08-28.82,17.47-27.68,70.86,4.04,83.58,23.78,9.53,60.96,4.92,69.59-26.66h-23.34c-2.77,20.07-30.33,21.22-40.44,8.76-8.48-10.44-8.45-36.37-1.23-47.63,9.66-15.07,37.11-15.25,41.67,5.04h23.34Z"/>
  <path d="M611.13,382.69c1.09-17.87,8.93-30.11,23.76-35.92,19.52-7.64,71.47-7.49,75.68,23.35,2.45,17.99-1.34,41.56.23,60.23.49,5.83,1.41,6.04,6.12,7.87l.15,10.08h-35.46s-3.61-8.22-3.61-8.22c-16.78,11.96-44.91,16.02-61.01,1.02-11.89-11.08-11.8-33.83,0-45.05,15.4-14.65,35.53-9.61,52.7-14.66,7.22-2.13,9.37-7.94,1.42-10.29-8.41-2.48-26.72-2.71-25.87,11.59h-34.12ZM618.31,376.54h21.1c4.49-13.82,17.42-14.6,28.72-13.32,15.76,1.79,20.47,19.37,4.45,24.54-17.22,5.56-59.58-.58-58.33,31.87,1.15,29.73,40.38,27.6,57.3,16.17,1.42-.96,10.9-9.69,11.39-9.02.01,4.63-.16,10.58,2.25,14.35h22c-1.15-4.09-2.39-7.3-2.73-11.75-1.37-18.14,1.8-39.48-.07-57.33-1.21-11.56-8.95-15.62-17.86-18.56-20.09-6.62-63.74-8.31-68.23,23.06Z"/>
  <path d="M287.92,407.29c.64,16.86,23.9,20.62,33.66,12.29,2.29-1.95,4.26-6.73,6.28-7.18l28.64.13c1.58.47,1.04,3.14,1.67,3.79,1.15,1.19,2.86-1.61,2.29,2.55-1.77,13.04-20.74,25.93-31.05,29.13-39.9,12.4-86.24-9.63-76.28-64.54,10.18-56.12,107.07-58.88,109.34,13.02.11,3.36.73,8.48-1.38,10.81h-73.17ZM356.16,400.12c1.45-40.3-27.79-53.64-58.7-50.11-28.29,3.24-44.36,28.78-38,60.56,8.22,41.06,77.57,45.09,94,9.02h-22.89c-.35,0-3.83,4.68-4.99,5.57-18,13.92-46.53,2.32-44.83-25.05h75.41Z"/>
  <path d="M413.61,319.13v26.65s17.96,0,17.96,0v24.6s-17.96,0-17.96,0v50.74s1.49,1.37,1.49,1.37c5.72,1.35,10.74.3,16.46.17v25.63c-14.47,1.36-49.76,5.63-52.07-17.94-1.72-17.51,1.83-39.06.05-56.44-.15-1.49-.11-2.64-1.39-3.54h-13.92s0-24.6,0-24.6h15.26s0-26.65,0-26.65h34.12ZM407.33,326.31h-21.55s0,26.65,0,26.65h-15.26s0,11.28,0,11.28h15.26s0,67.15,0,67.15c0,.66,2.42,4.73,3.26,5.5,2.04,1.86,10.91,5.26,13.35,5.26h22.89s0-12.31,0-12.31c-4.91-.59-12.35,2.03-15.7-3.09-.4-.62-2.26-5.31-2.26-5.62v-56.89s17.96,0,17.96,0v-11.28s-17.96,0-17.96,0v-26.65Z"/>
  <path d="M479.15,344.76v103.54s-35.01,0-35.01,0v-103.54s35.01,0,35.01,0ZM472.87,351.94h-22.44s0,89.19,0,89.19h22.44s0-89.19,0-89.19Z"/>
  <path d="M682.05,392.94v18.96c0,.69-1.73,5.58-2.2,6.72-6.81,16.53-41.84,21.42-42.73-.53-.83-20.42,24.05-17.53,36.14-21.35,3-.95,5.7-3.18,8.79-3.8ZM675.76,403.2c-6.39,3.09-28.32,2.8-31.69,9.52-8.54,17.02,24.97,16.47,30.36,2.79,1.6-4.06,1.49-7.94,1.34-12.3Z"/>
  <path d="M281.64,389.87c.37-22.09,18.58-31.25,35.71-24.89,6.4,2.38,13.39,9.29,14.5,17.27,1.05,7.53-3.26,2.02-2.63,7.62h-47.58ZM325.63,383.71c-3.67-18-33.31-18.61-36.81,0h36.81Z"/>
  <path class="st0" d="M325.63,383.71h-36.81"/>
</svg>